<?xml version="1.0" encoding="UTF-8" standalone="no"?>
<!DOCTYPE svg PUBLIC "-//W3C//DTD SVG 1.1//EN" "http://www.w3.org/Graphics/SVG/1.1/DTD/svg11.dtd">
<svg width="100%" height="100%" viewBox="0 0 800 800" version="1.1" xmlns="http://www.w3.org/2000/svg" xmlns:xlink="http://www.w3.org/1999/xlink" xml:space="preserve" xmlns:serif="http://www.serif.com/" style="fill-rule:evenodd;clip-rule:evenodd;stroke-linejoin:round;stroke-miterlimit:2;">
    <g transform="matrix(2.66669,0,0,2.66669,0,0)">
        <path d="M149.996,0C232.835,0 299.996,67.158 299.996,149.997C299.996,232.834 232.835,299.997 149.996,299.997C67.157,299.997 0.001,232.834 0.001,149.997C0.001,67.158 67.157,0 149.996,0ZM96.645,78.234L96.643,78.234C81.061,66.535 55.812,57.483 55.812,86.287C55.812,92.039 59.11,134.61 61.045,141.522C67.768,165.55 92.27,171.679 114.065,167.969C75.968,174.452 66.277,195.93 87.207,217.407C126.959,258.197 144.34,207.173 148.794,194.099C149.611,191.702 149.993,190.581 149.998,191.534C150.004,190.581 150.386,191.702 151.203,194.099C155.659,207.173 173.041,258.196 212.79,217.407C233.72,195.93 224.029,174.453 185.932,167.969C207.727,171.679 232.228,165.55 238.952,141.522C240.887,134.61 244.185,92.039 244.185,86.287C244.185,57.483 218.936,66.535 203.354,78.234C181.757,94.447 158.528,127.322 149.999,144.963C141.47,127.321 118.241,94.447 96.645,78.234Z"/>
    </g>
</svg>
