<?xml version="1.0" encoding="UTF-8" standalone="no"?>
<!DOCTYPE svg PUBLIC "-//W3C//DTD SVG 1.1//EN" "http://www.w3.org/Graphics/SVG/1.1/DTD/svg11.dtd">
<svg width="100%" height="100%" viewBox="0 0 256 256" version="1.1" xmlns="http://www.w3.org/2000/svg" xmlns:xlink="http://www.w3.org/1999/xlink" xml:space="preserve" xmlns:serif="http://www.serif.com/" style="fill-rule:evenodd;clip-rule:evenodd;stroke-linejoin:round;stroke-miterlimit:2;">
    <g transform="matrix(1,0,0,1,0,-0.1473)">
        <path d="M255.978,131.071C254.39,201.617 195.822,257.589 125.12,256.129C54.422,254.515 -1.568,195.928 0.023,125.229C1.614,54.53 60.183,-1.442 130.881,0.172C201.579,1.785 257.569,60.372 255.978,131.071ZM75.561,60.613C60.246,49.115 35.429,40.218 35.429,68.528C35.429,74.181 38.67,116.023 40.572,122.816C47.179,146.432 71.261,152.456 92.683,148.81C55.239,155.182 45.714,176.292 66.285,197.4C105.355,237.491 122.439,187.342 126.817,174.492C127.619,172.136 127.995,171.034 128,171.971C128.006,171.034 128.382,172.136 129.184,174.492C133.564,187.342 150.648,237.49 189.716,197.4C210.287,176.292 200.762,155.183 163.318,148.81C184.739,152.456 208.821,146.432 215.429,122.816C217.33,116.023 220.572,74.182 220.572,68.528C220.572,40.218 195.757,49.115 180.441,60.613C159.214,76.548 136.384,108.86 128.001,126.198C119.619,108.858 96.787,76.548 75.561,60.613Z"/>
    </g>
</svg>
