<?xml version="1.0" encoding="UTF-8" standalone="no"?>
<!DOCTYPE svg PUBLIC "-//W3C//DTD SVG 1.1//EN" "http://www.w3.org/Graphics/SVG/1.1/DTD/svg11.dtd">
<svg width="100%" height="100%" viewBox="0 0 256 256" version="1.1" xmlns="http://www.w3.org/2000/svg" xmlns:xlink="http://www.w3.org/1999/xlink" xml:space="preserve" xmlns:serif="http://www.serif.com/" style="fill-rule:evenodd;clip-rule:evenodd;stroke-linejoin:round;stroke-miterlimit:2;">
    <g transform="matrix(1.08444,0,0,1.0833,-10.8444,-10.7175)">
        <g>
            <g>
                <path d="M118.9,10.2C103.7,11.4 89.7,15.3 76,22C64,27.9 55.4,34 45.6,43.5C35.5,53.3 28.2,63.4 22,76.1C16.2,88 12.6,99.7 10.6,113.5C9.8,118.9 9.8,137.1 10.6,142.6C13.9,165.5 22.7,186 36.7,203C69.3,242.6 123.3,256.7 170.9,238.1C201.4,226.2 226.1,201.4 238.1,170.8C243,158.2 245.5,146.1 246,132C246.9,105 238.7,79 222.4,57.2C199.8,27.2 164,9.5 127,9.9C123.6,10 119.9,10.1 118.9,10.2ZM196.2,77.2L196.2,178.8L59.6,178.8L59.6,77.2L196.2,77.2Z" style="fill:rgb(92,83,165);fill-rule:nonzero;"/>
                <path d="M70.8,90.6L70.9,92.9L99.2,111.1C114.8,121.2 127.7,129.4 127.9,129.4C128.1,129.4 141,121.1 156.6,111L184.9,92.6L185.1,88.4L70.6,88.4L70.8,90.6Z" style="fill:rgb(92,83,165);fill-rule:nonzero;"/>
                <path d="M70.7,131.1L70.7,156.3L72,154.7C72.7,153.8 78.5,146.2 84.9,137.8L96.4,122.5L88.7,117.5C84.5,114.8 78.6,111 75.8,109.1L70.6,105.7L70.6,131.1L70.7,131.1Z" style="fill:rgb(92,83,165);fill-rule:nonzero;"/>
                <path d="M172.2,114C165.5,118.4 159.9,122.2 159.8,122.4C159.7,122.8 182.6,153.5 184.7,155.9C184.9,156.1 185.1,145.1 185.1,131.1C185.1,117.2 185,105.9 184.8,105.9C184.6,105.9 179,109.5 172.2,114Z" style="fill:rgb(92,83,165);fill-rule:nonzero;"/>
                <path d="M91.1,148L76.4,167.4L102.2,167.5L153.8,167.5L179.6,167.4L165.2,148.5C157.4,138.1 150.7,129.3 150.3,129C149.9,128.6 147.3,130.1 138.8,135.6L127.9,142.8L116.9,135.6L105.9,128.5L91.1,148Z" style="fill:rgb(92,83,165);fill-rule:nonzero;"/>
            </g>
        </g>
    </g>
</svg>
