<?xml version="1.0" encoding="UTF-8" standalone="no"?>
<!DOCTYPE svg PUBLIC "-//W3C//DTD SVG 1.1//EN" "http://www.w3.org/Graphics/SVG/1.1/DTD/svg11.dtd">
<svg width="100%" height="100%" viewBox="0 0 256 256" version="1.1" xmlns="http://www.w3.org/2000/svg" xmlns:xlink="http://www.w3.org/1999/xlink" xml:space="preserve" xmlns:serif="http://www.serif.com/" style="fill-rule:evenodd;clip-rule:evenodd;stroke-linejoin:round;stroke-miterlimit:2;">
    <g transform="matrix(1,0,0,1,0,10.9396)">
        <path d="M118.096,-10.608C101.612,-9.308 86.43,-5.083 71.573,2.175C58.56,8.567 49.234,15.175 38.606,25.466C27.653,36.082 19.737,47.024 13.013,60.782C6.723,73.673 2.819,86.348 0.651,101.297C-0.217,107.147 -0.217,126.863 0.651,132.821C4.229,157.629 13.772,179.837 28.955,198.253C64.307,241.151 122.867,256.426 174.486,236.277C207.562,223.385 234.347,196.519 247.361,163.37C252.675,149.721 255.386,136.613 255.928,121.338C256.904,92.089 248.011,63.923 230.335,40.307C205.827,7.808 167.004,-11.366 126.879,-10.933C123.192,-10.824 119.18,-10.716 118.096,-10.608ZM201.923,61.973L201.923,172.037L53.788,172.037L53.788,61.973L201.923,61.973Z" style="fill-rule:nonzero;"/>
    </g>
    <g transform="matrix(1,0,0,1,0,-41.492)">
        <path d="M65.934,128.921L66.042,131.413L96.732,151.129C113.649,162.07 127.639,170.954 127.855,170.954C128.072,170.954 142.062,161.962 158.979,151.021L189.669,131.088L189.885,126.538L65.717,126.538L65.934,128.921Z" style="fill-rule:nonzero;"/>
    </g>
    <g transform="matrix(1,0,0,1,0,6.3893)">
        <path d="M65.825,124.914L65.825,152.213L67.235,150.48C67.994,149.505 74.284,141.272 81.225,132.172L93.696,115.598L85.345,110.181C80.791,107.256 74.393,103.14 71.356,101.082L65.717,97.398L65.717,124.914L65.825,124.914Z" style="fill-rule:nonzero;"/>
    </g>
    <g transform="matrix(1,0,0,1,0,6.3896)">
        <path d="M175.896,106.389C168.63,111.155 162.558,115.272 162.449,115.488C162.341,115.922 187.174,149.179 189.452,151.779C189.669,151.996 189.885,140.079 189.885,124.913C189.885,109.855 189.777,97.614 189.56,97.614C189.343,97.614 183.27,101.514 175.896,106.389Z" style="fill-rule:nonzero;"/>
    </g>
    <g transform="matrix(1,0,0,1,0,43.2223)">
        <path d="M87.948,106.389L72.007,127.405L99.985,127.513L155.942,127.513L183.921,127.405L168.305,106.931C159.846,95.664 152.581,86.131 152.147,85.806C151.713,85.373 148.894,86.998 139.676,92.956L127.855,100.756L115.927,92.956L103.998,85.265L87.948,106.389Z" style="fill-rule:nonzero;"/>
    </g>
</svg>
