<?xml version="1.0" encoding="UTF-8" standalone="no"?>
<!DOCTYPE svg PUBLIC "-//W3C//DTD SVG 1.1//EN" "http://www.w3.org/Graphics/SVG/1.1/DTD/svg11.dtd">
<svg width="100%" height="100%" viewBox="0 0 256 256" version="1.1" xmlns="http://www.w3.org/2000/svg" xmlns:xlink="http://www.w3.org/1999/xlink" xml:space="preserve" xmlns:serif="http://www.serif.com/" style="fill-rule:evenodd;clip-rule:evenodd;stroke-linejoin:round;stroke-miterlimit:2;">
    <g transform="matrix(0.853348,0,0,0.853348,0.00181335,0)">
        <g>
            <path d="M149.996,0C67.157,0 0.001,67.158 0.001,149.997C0.001,232.834 67.157,299.997 149.996,299.997C232.835,299.997 299.996,232.834 299.996,149.997C299.996,67.158 232.835,0 149.996,0ZM149.999,52.686L238.762,108.036L61.236,108.036L149.999,52.686ZM239.868,196.423L239.859,196.423C239.859,205.301 232.664,212.495 223.787,212.495L76.211,212.495C67.333,212.495 60.139,205.3 60.139,196.423L60.139,111.558C60.139,110.619 60.235,109.706 60.391,108.809L145.199,161.692C145.303,161.757 145.414,161.801 145.521,161.861C145.633,161.923 145.747,161.983 145.861,162.04C146.46,162.349 147.077,162.598 147.708,162.761C147.773,162.779 147.838,162.787 147.903,162.802C148.595,162.965 149.296,163.067 149.996,163.067L150.011,163.067C150.711,163.067 151.412,162.968 152.104,162.802C152.169,162.786 152.234,162.779 152.299,162.761C152.929,162.598 153.544,162.349 154.146,162.04C154.26,161.983 154.374,161.923 154.486,161.861C154.592,161.801 154.704,161.757 154.808,161.692L239.616,108.809C239.772,109.706 239.868,110.617 239.868,111.558L239.868,196.423Z" style="fill-rule:nonzero;"/>
        </g>
    </g>
</svg>
