<?xml version="1.0" encoding="UTF-8" standalone="no"?>
<!DOCTYPE svg PUBLIC "-//W3C//DTD SVG 1.1//EN" "http://www.w3.org/Graphics/SVG/1.1/DTD/svg11.dtd">
<svg width="100%" height="100%" viewBox="0 0 1024 1024" version="1.1" xmlns="http://www.w3.org/2000/svg" xmlns:xlink="http://www.w3.org/1999/xlink" xml:space="preserve" xmlns:serif="http://www.serif.com/" style="fill-rule:evenodd;clip-rule:evenodd;stroke-linejoin:round;stroke-miterlimit:2;">
    <g transform="matrix(1,0,0,1,0,-21.12)">
        <path d="M512,21.12C229.12,21.12 0,250.24 0,533.12C0,759.68 146.56,951.04 350.08,1018.88C375.68,1023.36 385.28,1008 385.28,994.56C385.28,982.4 384.64,942.08 384.64,899.2C256,922.88 222.72,867.84 212.48,839.04C206.72,824.32 181.76,778.88 160,766.72C142.08,757.12 116.48,733.44 159.36,732.8C199.68,732.16 228.48,769.92 238.08,785.28C284.16,862.72 357.76,840.96 387.2,827.52C391.68,794.24 405.12,771.84 419.84,759.04C305.92,746.24 186.88,702.08 186.88,506.24C186.88,450.56 206.72,404.48 239.36,368.64C234.24,355.84 216.32,303.36 244.48,232.96C244.48,232.96 287.36,219.52 385.28,285.44C426.24,273.92 469.76,268.16 513.28,268.16C556.8,268.16 600.32,273.92 641.28,285.44C739.2,218.88 782.08,232.96 782.08,232.96C810.24,303.36 792.32,355.84 787.2,368.64C819.84,404.48 839.68,449.92 839.68,506.24C839.68,702.72 720,746.24 606.08,759.04C624.64,775.04 640.64,805.76 640.64,853.76C640.64,922.24 640,977.28 640,994.56C640,1008 649.6,1024 675.2,1018.88C877.44,951.04 1024,759.04 1024,533.12C1024,250.24 794.88,21.12 512,21.12Z"/>
    </g>
</svg>
