<?xml version="1.0" encoding="UTF-8" standalone="no"?>
<!DOCTYPE svg PUBLIC "-//W3C//DTD SVG 1.1//EN" "http://www.w3.org/Graphics/SVG/1.1/DTD/svg11.dtd">
<svg width="100%" height="100%" viewBox="0 0 3333 3333" version="1.1" xmlns="http://www.w3.org/2000/svg" xmlns:xlink="http://www.w3.org/1999/xlink" xml:space="preserve" xmlns:serif="http://www.serif.com/" style="fill-rule:evenodd;clip-rule:evenodd;stroke-linejoin:round;stroke-miterlimit:2;">
    <g transform="matrix(1,0,0,1,0,1)">
        <path d="M1667,-1C2587,-1 3334,745 3334,1666C3334,2586 2588,3333 1667,3333C747,3333 0,2587 0,1666C0,746 746,-1 1667,-1ZM1277,751L2057,751C2350,751 2589,988 2589,1276L2589,2054C2589,2343 2350,2579 2057,2579L1277,2579C984,2579 745,2343 745,2054L745,1276C745,987 985,751 1277,751ZM1662,1172C1947,1172 2178,1403 2178,1688C2178,1973 1947,2204 1662,2204C1377,2204 1146,1973 1146,1688C1146,1403 1377,1172 1662,1172ZM1662,1346C1850,1346 2003,1499 2003,1687C2003,1875 1850,2028 1662,2028C1473,2028 1321,1875 1321,1687C1321,1499 1474,1346 1662,1346ZM2161,1100C2207,1100 2245,1137 2245,1184C2245,1230 2208,1268 2161,1268C2115,1268 2077,1231 2077,1184C2077,1138 2114,1100 2161,1100ZM1341,900L1993,900C2238,900 2438,1099 2438,1343L2438,1999C2438,2243 2238,2442 1993,2442L1341,2442C1096,2442 896,2243 896,1999L896,1343C896,1099 1096,900 1341,900Z"/>
    </g>
</svg>
