<?xml version="1.0" encoding="UTF-8" standalone="no"?>
<!DOCTYPE svg PUBLIC "-//W3C//DTD SVG 1.1//EN" "http://www.w3.org/Graphics/SVG/1.1/DTD/svg11.dtd">
<svg width="100%" height="100%" viewBox="0 0 3333 3333" version="1.1" xmlns="http://www.w3.org/2000/svg" xmlns:xlink="http://www.w3.org/1999/xlink" xml:space="preserve" xmlns:serif="http://www.serif.com/" style="fill-rule:evenodd;clip-rule:evenodd;stroke-linejoin:round;stroke-miterlimit:2;">
    <path d="M1667,0C2587,0 3334,746 3334,1667C3334,2587 2588,3334 1667,3334C747,3334 0,2588 0,1667C0,747 746,0 1667,0ZM1277,752L2057,752C2350,752 2589,989 2589,1277L2589,2055C2589,2344 2350,2580 2057,2580L1277,2580C984,2580 745,2344 745,2055L745,1277C745,988 985,752 1277,752ZM1662,1173C1947,1173 2178,1404 2178,1689C2178,1974 1947,2205 1662,2205C1377,2205 1146,1974 1146,1689C1146,1404 1377,1173 1662,1173ZM1662,1347C1850,1347 2003,1500 2003,1688C2003,1876 1850,2029 1662,2029C1473,2029 1321,1876 1321,1688C1321,1500 1474,1347 1662,1347ZM2161,1101C2207,1101 2245,1138 2245,1185C2245,1231 2208,1269 2161,1269C2115,1269 2077,1232 2077,1185C2077,1139 2114,1101 2161,1101ZM1341,901L1993,901C2238,901 2438,1100 2438,1344L2438,2000C2438,2244 2238,2443 1993,2443L1341,2443C1096,2443 896,2244 896,2000L896,1344C896,1100 1096,901 1341,901Z" style="fill:rgb(248,160,126);"/>
</svg>
