<?xml version="1.0" encoding="UTF-8" standalone="no"?>
<!DOCTYPE svg PUBLIC "-//W3C//DTD SVG 1.1//EN" "http://www.w3.org/Graphics/SVG/1.1/DTD/svg11.dtd">
<svg width="100%" height="100%" viewBox="0 0 256 256" version="1.1" xmlns="http://www.w3.org/2000/svg" xmlns:xlink="http://www.w3.org/1999/xlink" xml:space="preserve" xmlns:serif="http://www.serif.com/" style="fill-rule:evenodd;clip-rule:evenodd;stroke-linejoin:round;stroke-miterlimit:2;">
    <g transform="matrix(1.08475,0,0,1.08475,-10.8475,-10.8475)">
        <g>
            <path d="M128,86.1C117.5,86.1 109,94.6 109,105.1C109,115.6 117.5,124.1 128,124.1C138.5,124.1 147,115.6 147,105.1C147,94.6 138.5,86.1 128,86.1Z" style="fill:rgb(235,127,134);fill-rule:nonzero;"/>
            <path d="M128,10C62.9,10 10,62.9 10,128C10,193.1 62.9,246 128,246C193.1,246 246,193.1 246,128C246,62.9 193.1,10 128,10ZM128,204.1C128,204.1 74.7,145.1 74.7,105.1C74.7,75.6 98.5,51.8 128,51.8C157.5,51.8 181.3,75.6 181.3,105.1C181.3,145.1 128,204.1 128,204.1Z" style="fill:rgb(235,127,134);fill-rule:nonzero;"/>
        </g>
    </g>
</svg>
