<?xml version="1.0" encoding="UTF-8" standalone="no"?>
<!DOCTYPE svg PUBLIC "-//W3C//DTD SVG 1.1//EN" "http://www.w3.org/Graphics/SVG/1.1/DTD/svg11.dtd">
<svg width="100%" height="100%" viewBox="0 0 800 800" version="1.1" xmlns="http://www.w3.org/2000/svg" xmlns:xlink="http://www.w3.org/1999/xlink" xml:space="preserve" xmlns:serif="http://www.serif.com/" style="fill-rule:evenodd;clip-rule:evenodd;stroke-linejoin:round;stroke-miterlimit:2;">
    <path d="M400,0C179.067,0 0,179.067 0,400C0,620.933 179.067,800 400,800C620.933,800 800,620.933 800,400C800,179.067 620.933,0 400,0ZM245.633,145.933C263.133,145.933 277.2,160.3 277.2,177.5C277.2,194.7 263.133,209.067 245.633,209.067C228.337,209.012 214.121,194.796 214.067,177.5C214.067,160 228.133,145.933 245.633,145.933ZM221.567,247.2L269.7,247.2L269.7,581.9L221.567,581.9L221.567,247.2ZM340.3,247.2L470.3,247.2C594.033,247.2 648.433,335.633 648.433,414.7C648.433,500.633 581.233,582.2 470.933,582.2L340.3,582.2L340.3,247.2ZM388.433,290.633L388.433,538.767L465,538.767C574.067,538.767 599.067,455.967 599.067,414.7C599.067,347.5 556.267,290.633 462.5,290.633L388.433,290.633Z" style="fill:rgb(92,83,165);fill-rule:nonzero;"/>
</svg>
