<?xml version="1.0" encoding="UTF-8" standalone="no"?>
<!DOCTYPE svg PUBLIC "-//W3C//DTD SVG 1.1//EN" "http://www.w3.org/Graphics/SVG/1.1/DTD/svg11.dtd">
<svg width="100%" height="100%" viewBox="0 0 410 512" version="1.1" xmlns="http://www.w3.org/2000/svg" xmlns:xlink="http://www.w3.org/1999/xlink" xml:space="preserve" xmlns:serif="http://www.serif.com/" style="fill-rule:evenodd;clip-rule:evenodd;stroke-linejoin:round;stroke-miterlimit:2;">
    <g transform="matrix(1,0,0,1,-51,0)">
        <path d="M307.34,0L115.2,0C80.091,0 51.2,28.891 51.2,64L51.2,448C51.2,483.109 80.091,512 115.2,512L396.8,512C431.909,512 460.8,483.109 460.8,448L460.8,153.6L307.34,0ZM411.49,140.8L358.4,140.8C337.343,140.778 320.022,123.457 320,102.4L320,49.08L411.49,140.8ZM435.2,448C435.178,469.057 417.857,486.378 396.8,486.4L115.2,486.4C94.143,486.378 76.822,469.057 76.8,448L76.8,64C76.822,42.943 94.143,25.622 115.2,25.6L294.4,25.6L294.4,102.4C294.4,137.509 323.291,166.4 358.4,166.4L435.2,166.4L435.2,448Z" style="fill:rgb(92,83,165);fill-rule:nonzero;"/>
    </g>
</svg>
