<?xml version="1.0" encoding="UTF-8" standalone="no"?>
<!DOCTYPE svg PUBLIC "-//W3C//DTD SVG 1.1//EN" "http://www.w3.org/Graphics/SVG/1.1/DTD/svg11.dtd">
<svg width="100%" height="100%" viewBox="0 0 1024 1024" version="1.1" xmlns="http://www.w3.org/2000/svg" xmlns:xlink="http://www.w3.org/1999/xlink" xml:space="preserve" xmlns:serif="http://www.serif.com/" style="fill-rule:evenodd;clip-rule:evenodd;stroke-linejoin:round;stroke-miterlimit:2;">
    <g transform="matrix(0.586475,0,0,0.586473,-133.122,-77.4145)">
        <g>
            <path d="M1100,228.053C995.09,228.053 893.343,248.589 797.587,289.091C705.072,328.221 621.975,384.249 550.606,455.619C479.235,526.99 423.206,610.086 384.076,702.601C343.574,798.357 323.039,900.104 323.039,1005.01C323.039,1109.92 343.574,1211.67 384.076,1307.43C423.206,1399.94 479.235,1483.04 550.606,1554.41C621.975,1625.78 705.072,1681.81 797.587,1720.94C893.343,1761.44 995.09,1781.98 1100,1781.98C1204.91,1781.98 1306.66,1761.44 1402.41,1720.94C1494.93,1681.81 1578.02,1625.78 1649.39,1554.41C1720.77,1483.04 1776.79,1399.94 1815.92,1307.43C1856.43,1211.67 1876.96,1109.92 1876.96,1005.01C1876.96,900.104 1856.43,798.357 1815.92,702.601C1776.79,610.086 1720.77,526.99 1649.39,455.619C1578.02,384.249 1494.93,328.221 1402.41,289.091C1306.66,248.589 1204.91,228.053 1100,228.053ZM1100,1878.03C982.165,1878.03 867.829,1854.94 760.169,1809.4C656.206,1765.43 562.847,1702.49 482.686,1622.33C402.525,1542.17 339.584,1448.81 295.611,1344.85C250.075,1237.18 226.986,1122.85 226.986,1005.01C226.986,887.18 250.075,772.843 295.611,665.183C339.584,561.219 402.525,467.861 482.686,387.7C562.847,307.539 656.206,244.599 760.169,200.625C867.829,155.089 982.165,132 1100,132C1217.83,132 1332.17,155.089 1439.83,200.625C1543.79,244.599 1637.15,307.539 1717.31,387.7C1797.48,467.861 1860.42,561.219 1904.39,665.183C1949.93,772.843 1973.01,887.18 1973.01,1005.01C1973.01,1122.85 1949.93,1237.18 1904.39,1344.85C1860.42,1448.81 1797.48,1542.17 1717.31,1622.33C1637.15,1702.49 1543.79,1765.43 1439.83,1809.4C1332.17,1854.94 1217.83,1878.03 1100,1878.03Z" style="fill:rgb(93,83,163);fill-rule:nonzero;"/>
            <path d="M1471.69,1082.86L974.479,1410.38C912.499,1451.2 829.985,1406.75 829.985,1332.53L829.985,677.497C829.985,603.279 912.499,558.825 974.479,599.651L1471.69,927.169C1527.61,964.003 1527.61,1046.03 1471.69,1082.86Z" style="fill:rgb(93,83,163);fill-rule:nonzero;"/>
        </g>
    </g>
</svg>
