<?xml version="1.0" encoding="UTF-8" standalone="no"?>
<!DOCTYPE svg PUBLIC "-//W3C//DTD SVG 1.1//EN" "http://www.w3.org/Graphics/SVG/1.1/DTD/svg11.dtd">
<svg width="100%" height="100%" viewBox="0 0 256 256" version="1.1" xmlns="http://www.w3.org/2000/svg" xmlns:xlink="http://www.w3.org/1999/xlink" xml:space="preserve" xmlns:serif="http://www.serif.com/" style="fill-rule:evenodd;clip-rule:evenodd;stroke-linejoin:round;stroke-miterlimit:2;">
    <g transform="matrix(1,0,0,1,0,-0.1473)">
        <path d="M255.978,131.071C254.39,201.617 195.822,257.589 125.12,256.129C54.422,254.515 -1.568,195.928 0.023,125.229C1.614,54.53 60.183,-1.442 130.881,0.172C201.579,1.785 257.569,60.372 255.978,131.071ZM106.021,47.808L51.795,96.612L88.567,96.612C88.676,112.05 100.423,127.686 121.039,127.686C122.992,127.686 125.161,127.469 127.331,127.252C126.354,129.692 125.329,131.696 125.329,135.004C125.329,141.24 128.473,144.982 131.239,148.561C122.4,149.157 105.966,150.185 93.873,157.722C82.323,164.717 78.802,174.86 78.802,182.018C78.802,196.767 92.467,210.487 120.828,210.487C154.448,210.487 172.289,191.565 172.289,172.857C172.289,159.137 164.474,152.356 155.852,144.981L148.862,139.4C146.693,137.664 143.704,135.222 143.704,130.884C143.704,126.492 146.695,123.669 149.243,121.066C157.432,114.559 165.67,107.241 165.67,92.492C165.67,86.836 164.348,82.233 162.461,78.448L181.938,61.746L181.938,81.848C178.711,83.724 176.515,87.182 176.515,91.189L176.515,123.725C176.515,129.711 181.374,134.57 187.361,134.57C193.347,134.57 198.206,129.711 198.206,123.725L198.206,91.189C198.206,87.187 196.01,83.73 192.783,81.848L192.783,53.231C192.783,52.998 192.678,52.802 192.645,52.574L198.206,47.808L106.021,47.808ZM123.751,65.379C140.019,65.379 148.428,87.664 148.428,102.034C148.428,105.559 147.992,111.903 143.545,116.512C140.4,119.712 135.146,122.094 130.211,122.094C113.455,122.094 105.746,99.975 105.746,86.635C105.746,81.484 106.781,76.119 110.088,71.998C113.233,67.931 118.708,65.379 123.751,65.379ZM133.346,154.142C135.353,154.142 136.338,154.148 137.911,154.365C152.769,165.101 159.167,170.469 159.167,180.609C159.167,192.919 149.24,202.141 130.423,202.141C109.492,202.141 96.045,191.998 96.045,177.845C96.045,163.692 108.514,158.968 112.853,157.341C121.041,154.521 131.611,154.142 133.346,154.142Z"/>
    </g>
</svg>
