<?xml version="1.0" encoding="UTF-8" standalone="no"?>
<!DOCTYPE svg PUBLIC "-//W3C//DTD SVG 1.1//EN" "http://www.w3.org/Graphics/SVG/1.1/DTD/svg11.dtd">
<svg width="100%" height="100%" viewBox="0 0 256 256" version="1.1" xmlns="http://www.w3.org/2000/svg" xmlns:xlink="http://www.w3.org/1999/xlink" xml:space="preserve" xmlns:serif="http://www.serif.com/" style="fill-rule:evenodd;clip-rule:evenodd;stroke-linejoin:round;stroke-miterlimit:2;">
    <g transform="matrix(1,0,0,1,0,-0.1473)">
        <path d="M255.978,131.071C257.569,60.372 201.579,1.785 130.881,0.172C60.183,-1.442 1.614,54.53 0.023,125.229C-1.568,195.928 54.422,254.515 125.12,256.129C195.822,257.589 254.39,201.617 255.978,131.071ZM58.044,171.971C60.263,172.252 62.481,172.533 64.782,172.585C77.97,172.887 90.346,168.412 100.112,160.58C87.697,159.99 77.466,151.01 74.207,138.967C75.888,139.312 77.646,139.583 79.561,139.703C82.168,139.763 84.629,139.512 87.022,138.876C74.127,135.743 64.666,123.175 64.994,108.606C64.998,108.453 65.001,108.3 65.001,108.3C68.783,110.687 73.046,112.166 77.718,112.503C70.25,106.885 65.474,97.493 65.713,86.911C65.837,81.39 67.334,76.208 69.888,71.816C83.43,90.538 104.01,103.283 127.439,105.352C126.953,103.116 126.851,100.812 126.903,98.511C127.276,81.949 140.223,69.125 155.783,69.711C163.908,70.049 171.186,73.898 176.191,79.92C182.66,78.84 188.771,76.601 194.289,73.428C191.987,80.28 187.412,85.853 181.501,89.401C187.189,88.917 192.745,87.509 197.857,85.324C193.967,91.143 189.021,96.17 183.407,100.185C183.454,101.49 183.426,102.717 183.395,104.097C182.512,143.357 153.044,188.026 101.059,186.686C85.113,186.169 70.426,180.847 58.044,171.971Z" style="fill-rule:nonzero;"/>
    </g>
</svg>
