<?xml version="1.0" encoding="UTF-8" standalone="no"?>
<!DOCTYPE svg PUBLIC "-//W3C//DTD SVG 1.1//EN" "http://www.w3.org/Graphics/SVG/1.1/DTD/svg11.dtd">
<svg width="100%" height="100%" viewBox="0 0 256 256" version="1.1" xmlns="http://www.w3.org/2000/svg" xmlns:xlink="http://www.w3.org/1999/xlink" xml:space="preserve" xmlns:serif="http://www.serif.com/" style="fill-rule:evenodd;clip-rule:evenodd;stroke-linejoin:round;stroke-miterlimit:2;">
    <g transform="matrix(0.749533,0.784298,-0.784048,0.749295,132.42,-68.3735)">
        <g>
            <path d="M211.5,44.6C165.4,-1.5 90.7,-1.5 44.6,44.6C-1.5,90.7 -1.5,165.4 44.6,211.5C90.7,257.6 165.4,257.6 211.5,211.5C257.5,165.3 257.5,90.6 211.5,44.6ZM112.7,202.6C114.3,201.3 115.9,200 117.4,198.5C126,189.9 130.9,178.8 131.9,167.3C123.6,175.2 111.1,176.3 101,170.8C102.3,169.9 103.6,168.9 104.9,167.7C106.6,166 108,164.2 109.1,162.2C98.8,168.8 84.4,167.1 74.9,157.6C74.8,157.5 74.7,157.4 74.7,157.4C78.7,156.4 82.4,154.5 85.6,151.6C77.1,153 67.8,150.2 60.9,143.3C57.3,139.7 54.8,135.4 53.5,130.9C74.6,133.8 96.2,128.2 112.5,113.9C110.7,112.8 109.1,111.4 107.6,109.9C96.8,99.1 96.5,82.3 106.8,72.3C112.2,67.1 119.4,64.7 126.6,65.2C130,60.2 132.4,54.7 133.8,49C136.9,54.9 137.7,61.5 136.3,67.7C139.6,63.6 142.2,59 144,54.2C145.4,60.5 145.6,67 144.7,73.3C145.6,74.1 146.4,74.9 147.3,75.8C172.9,101.4 183.9,149.5 149.9,183.3C139.4,193.6 126.5,200 112.7,202.6Z" style="fill:rgb(235,127,134);fill-rule:nonzero;"/>
        </g>
    </g>
</svg>
